<?xml version="1.0" standalone="no"?>
<!DOCTYPE svg PUBLIC "-//W3C//DTD SVG 20010904//EN"
        "http://www.w3.org/TR/2001/REC-SVG-20010904/DTD/svg10.dtd">
<svg version="1.0" xmlns="http://www.w3.org/2000/svg"
     width="40" height="40" viewBox="0 0 460.000000 460.000000"
     preserveAspectRatio="xMidYMid meet">

    <g transform="translate(0.000000,460.000000) scale(0.100000,-0.100000)"
       fill="#000000" stroke="none">
        <path d="M2122 4257 c-18 -7 -54 -31 -80 -53 -84 -73 -82 -59 -82 -676 l0
-538 245 0 c164 0 245 -3 245 -10 0 -6 -12 -22 -26 -37 -100 -100 -129 -169
-122 -290 10 -169 128 -289 297 -301 166 -11 306 88 347 247 29 116 -3 221
-96 319 -27 29 -50 57 -50 62 0 6 84 10 220 10 l221 0 24 -25 25 -24 0 -265 0
-264 31 -11 c70 -24 140 0 210 72 54 57 107 80 179 79 73 -1 119 -22 168 -77
71 -81 78 -185 17 -273 -45 -67 -103 -97 -185 -97 -76 1 -113 17 -181 80 -25
24 -61 51 -80 61 -39 20 -104 23 -137 5 -22 -12 -22 -13 -22 -267 0 -275 -5
-305 -52 -318 -13 -3 -305 -6 -650 -6 l-628 0 0 -542 c0 -511 2 -545 19 -583
25 -53 75 -103 125 -126 39 -18 91 -19 1112 -19 l1072 0 52 27 c30 16 64 45
81 68 62 87 60 -8 57 1871 l-3 1709 -26 56 c-29 60 -91 118 -148 138 -49 16
-2133 14 -2179 -2z m2136 -1929 l2 -1468 -1045 0 -1045 0 0 300 0 300 549 0
c457 0 555 2 590 15 64 22 127 79 158 143 24 50 28 70 31 180 4 109 6 122 21
116 60 -26 123 -35 213 -31 85 3 106 8 165 37 76 37 171 128 205 194 29 56 58
163 58 211 0 54 -35 179 -65 229 -44 75 -118 141 -202 181 -66 31 -92 38 -163
42 -73 5 -95 2 -156 -19 l-72 -25 -4 122 c-4 113 -6 127 -36 187 -25 52 -43
73 -85 102 -29 20 -68 41 -87 46 -21 6 -246 10 -577 10 l-543 0 0 293 c0 162
3 297 7 300 3 4 473 6 1042 5 l1036 -3 3 -1467z"/>
        <path d="M145 3095 c-5 -2 -22 -6 -37 -9 l-28 -6 0 -751 c0 -705 1 -750 18
-757 9 -4 306 -7 659 -7 l641 0 39 31 c72 57 78 80 81 332 2 138 7 222 13 222
5 0 31 -21 57 -47 107 -105 252 -134 380 -73 74 35 124 85 160 160 36 74 38
199 4 275 -42 91 -120 155 -224 181 -113 29 -217 0 -315 -89 l-68 -61 -5 229
c-5 222 -6 231 -30 275 -17 29 -41 53 -70 70 -45 25 -48 25 -316 28 l-272 3
-11 -48 c-17 -71 5 -130 80 -211 46 -51 60 -74 70 -117 46 -206 -201 -359
-364 -224 -51 42 -87 115 -87 176 1 63 27 118 85 177 26 26 53 63 61 82 16 39
18 102 4 138 l-10 26 -252 -1 c-139 0 -257 -2 -263 -4z"/>
    </g>
</svg>
